<?xml version="1.0" encoding="utf-8"?>
<!-- Generator: Adobe Illustrator 19.2.1, SVG Export Plug-In . SVG Version: 6.00 Build 0)  -->
<!DOCTYPE svg PUBLIC "-//W3C//DTD SVG 1.1//EN" "http://www.w3.org/Graphics/SVG/1.1/DTD/svg11.dtd">
<svg version="1.1" id="Layer_1" xmlns="http://www.w3.org/2000/svg" xmlns:xlink="http://www.w3.org/1999/xlink" x="0px" y="0px"
	 viewBox="0 0 18 17" style="enable-background:new 0 0 18 17;" xml:space="preserve">
<style type="text/css">
	.st0{fill:#A57164;}
</style>
<path class="st0" d="M16.8,0.8c-0.3-0.2-0.7-0.3-1-0.3c-0.5,0-1.1,0.2-1.4,0.7L6.1,12.3l-2.8-2.1C3,9.9,2.6,9.8,2.2,9.8
	c-0.5,0-1.1,0.2-1.4,0.7c-0.6,0.8-0.4,1.9,0.3,2.4l4.2,3.2c0.3,0.2,0.7,0.4,1.1,0.4c0.1,0,0.2,0,0.2,0c0.5-0.1,0.9-0.3,1.2-0.7
	l9.3-12.5C17.8,2.5,17.6,1.4,16.8,0.8z"/>
</svg>
